<?xml version="1.0" encoding="UTF-8"?>
<svg id="Layer_2" data-name="Layer 2" xmlns="http://www.w3.org/2000/svg" viewBox="0 0 299 215.56">
  <defs>
    <style>
      .cls-1 {
        fill: #e3e3e3;
      }

      .cls-1, .cls-2 {
        stroke: #9b9b9b;
        stroke-linejoin: round;
        stroke-width: 4px;
      }

      .cls-2 {
        fill: none;
      }

      .cls-3 {
        fill: #c1c1c1;
      }
    </style>
  </defs>
  <g id="rock">
    <path class="cls-1" d="M88.52,2L23.24,39.93,2,96.22l16.02,63.41,63.39,46.22s-1.48,2.37-2.52,4.74,19.11,2.96,19.11,2.96l77.98-4.74,45.28-34.37,31.41,3.56,44.33-59.26-31-67.56-50.07-15.41L195.78,2l-56.3,10.07L88.52,2Z"/>
    <polygon class="cls-3" points="86.84 47.46 53.06 81.83 72.62 141.69 118.84 153.54 97.61 135.76 83.29 85.98 101.66 32.65 86.84 47.46"/>
    <polygon class="cls-3" points="254.44 93.09 260.78 121.7 229.78 150.15 205.31 160.81 223.63 146.59 244.37 112.81 244.37 80.22 254.44 93.09"/>
    <polygon class="cls-3" points="81.41 205.85 118.84 205.85 142.44 194 115.19 199.93 81.41 205.85"/>
    <polygon class="cls-3" points="149.5 122.3 170.76 146 200.52 146 220.07 127.63 215.33 96.22 211.19 121.11 191.04 134.15 149.5 122.3"/>
    <polygon class="cls-3" points="118.84 70.15 128.92 32.22 159.73 27.91 197.66 41.92 157.23 35.19 135.7 44.93 118.84 70.15"/>
    <polygon class="cls-3" points="34 114 18.02 159.63 63.04 179.78 38.15 160.81 34 114"/>
    <path class="cls-2" d="M88.52,2L23.24,39.93,2,96.22l16.02,63.41,63.39,46.22s-1.48,2.37-2.52,4.74,19.11,2.96,19.11,2.96l77.98-4.74,45.28-34.37,31.41,3.56,44.33-59.26-31-67.56-50.07-15.41L195.78,2l-56.3,10.07L88.52,2Z"/>
    <polygon class="cls-3" points="170.76 67.78 154.3 102.74 190.44 114 197.66 98 188.67 96.22 188.07 70.15 170.76 67.78"/>
  </g>
</svg>