<?xml version="1.0" encoding="UTF-8"?>
<svg id="Layer_2" data-name="Layer 2" xmlns="http://www.w3.org/2000/svg" viewBox="0 0 373.6 329.26">
  <defs>
    <style>
      .cls-1 {
        fill: #c9c9c9;
      }

      .cls-1, .cls-2 {
        stroke: #9b9b9b;
        stroke-linejoin: round;
        stroke-width: 4px;
      }

      .cls-2 {
        fill: #e3e3e3;
      }
    </style>
  </defs>
  <g id="scissors">
    <polygon class="cls-2" points="116.45 90.17 156.44 200.17 371.6 327.26 167.97 138.29 139.38 111.59 116.45 90.17"/>
    <line class="cls-2" x1="194.47" y1="163.05" x2="156.44" y2="200.17"/>
    <g>
      <path class="cls-1" d="M187.78,157.27c1.36,1.14,2.75,2.29,4.18,3.44l-4.18-3.44Z"/>
      <path class="cls-1" d="M140.31,81.87c-1.65-16.75,2.14-34.23-9.67-54.62-3.74-6.46-12.06-20.82-28.49-24.39-12.01-2.61-28.67,.47-36.7,12.77-9.88,15.15-.03,34.14,2.48,38.96,8.64,16.64,25.38,24.98,36.23,30.38,5.03,2.5,12.28,5.2,12.28,5.2l9.66,16.4,61.67,50.7c-35.64-29.91-45.56-56.12-47.47-75.4Zm-21.07-14.73c-5.65,4.56-18.2-1.84-24.57-6.78-11.06-8.58-20.02-25.59-13.95-33.72,4.59-6.16,16.85-5.99,24.96-2,16.99,8.35,21.35,36.22,13.57,42.51Z"/>
    </g>
    <path class="cls-1" d="M119.54,126.89c-18.41,2.06-29.11-2.35-35.64-7.45-14.78-11.55-10.09-28.1-26.44-40.7-.99-.76-18.04-13.52-34.41-7.18C5.97,78.18-3,102.78,4.89,120.01c5.59,12.21,17.99,17.11,19.45,17.67,7.68,2.91,12.92,1.6,19.03,1.79,18.6,.57,28.74,14.51,45.52,26.95,10.86,8.06,27.94,18.03,53.78,24.11l-23.13-63.64Zm-90.83-9.33c-7.87-4.39-10.35-15.02-5.85-22.59,3.69-6.21,11.52-9.41,18.51-7.26,8.56,2.62,13.63,12.55,10.49,21.14-3.34,9.12-14.71,13.42-23.15,8.71Z"/>
    <g>
      <polyline class="cls-1" points="191.96 160.71 194.47 163.05 156.44 200.17 120.82 102.19"/>
      <g>
        <path class="cls-1" d="M187.78,157.27c1.36,1.14,2.75,2.29,4.18,3.44l-4.18-3.44Z"/>
        <path class="cls-1" d="M120.82,102.19l5.29,4.37,61.67,50.7"/>
      </g>
    </g>
    <g id="screw">
      <circle class="cls-2" cx="163.35" cy="161.17" r="9.75"/>
      <line class="cls-2" x1="159.19" y1="152.35" x2="167.51" y2="169.99"/>
    </g>
  </g>
</svg>